<svg width="57" height="58" viewBox="0 0 57 58" fill="none" xmlns="http://www.w3.org/2000/svg">
<path d="M57 33C57 36.2174 56.2628 39.4033 54.8306 42.3757C53.3983 45.3482 51.299 48.0491 48.6525 50.3241C46.0061 52.5992 42.8643 54.4038 39.4065 55.635C35.9487 56.8663 32.2427 57.5 28.5 57.5C24.7573 57.5 21.0513 56.8663 17.5935 55.635C14.1357 54.4038 10.9939 52.5992 8.34746 50.3241C5.70099 48.0491 3.60169 45.3482 2.16943 42.3757C0.737174 39.4033 -3.27195e-07 36.2174 0 33H10.1187C10.1187 35.0751 10.5941 37.1298 11.5179 39.047C12.4416 40.9641 13.7956 42.706 15.5024 44.1733C17.2093 45.6406 19.2357 46.8046 21.4658 47.5987C23.6959 48.3928 26.0861 48.8015 28.5 48.8015C30.9139 48.8015 33.3041 48.3928 35.5342 47.5987C37.7643 46.8046 39.7907 45.6406 41.4976 44.1733C43.2044 42.706 44.5584 40.9641 45.4821 39.047C46.4059 37.1298 46.8813 35.0751 46.8813 33H57Z" fill="#22B9B0"/>
<ellipse cx="10.5" cy="8.5" rx="6.5" ry="8" fill="#22B9B0"/>
<ellipse cx="46.5" cy="8.5" rx="6.5" ry="8" fill="#22B9B0"/>
</svg>
