<svg xmlns="http://www.w3.org/2000/svg" width="512" height="512" viewBox="0 0 512 512" version="1.1"><path d="M 402.481 25.250 L 392.500 35.500 402.750 25.519 C 412.270 16.248, 413.455 15, 412.731 15 C 412.583 15, 407.971 19.612, 402.481 25.250 M 26.946 20.750 L 23.500 24.500 27.250 21.054 C 30.740 17.846, 31.460 17, 30.696 17 C 30.529 17, 28.842 18.688, 26.946 20.750 M 291.995 135.750 L 255.500 172.500 292.250 136.005 C 326.406 102.086, 329.450 99, 328.745 99 C 328.605 99, 312.067 115.537, 291.995 135.750 M 218.995 378.750 L 182.500 415.500 219.250 379.005 C 239.463 358.933, 256 342.395, 256 342.255 C 256 341.550, 252.914 344.594, 218.995 378.750 M 21.982 488.250 C 27.747 494.163, 32.585 499, 32.732 499 C 33.454 499, 32.235 497.718, 22.250 487.982 L 11.500 477.500 21.982 488.250 M 488.481 489.250 L 478.500 499.500 488.750 489.519 C 494.387 484.029, 499 479.417, 499 479.269 C 499 478.545, 497.752 479.730, 488.481 489.250" stroke="none" fill="#54d4cc" fill-rule="evenodd"/><path d="M 53.500 2.342 C 44 5.507, 39.124 9.073, 24.319 23.682 C 8.078 39.707, 5.207 43.490, 1.936 53.171 C 0.169 58.401, -0.126 61.149, 0.232 69 C 0.712 79.502, 3.181 86.520, 9.144 94.333 C 10.893 96.625, 47.906 134.159, 91.395 177.741 L 170.466 256.983 89.362 338.241 C 9.814 417.941, 8.184 419.652, 4.379 427.448 C 0.556 435.281, 0.500 435.564, 0.500 446.948 C 0.500 458.097, 0.622 458.754, 4 465.778 C 7.005 472.028, 9.751 475.317, 23.432 489.050 C 36.609 502.278, 40.565 505.645, 46.316 508.522 C 53.143 511.937, 53.496 512, 65.779 512 C 78.038 512, 78.444 511.928, 85.895 508.430 C 93.372 504.919, 94.863 503.488, 174.443 423.403 L 255.386 341.948 336.943 423.284 C 432.122 518.205, 423.684 511.270, 444.699 511.838 C 457.141 512.173, 458.218 512.047, 463.501 509.628 C 470.996 506.197, 472.163 505.231, 489.379 488.210 C 502.270 475.466, 504.709 472.540, 507.629 466.316 C 509.483 462.364, 511 458.202, 511 457.066 C 511 455.929, 511.450 455, 512 455 C 512.596 455, 512.994 451.260, 512.985 445.750 C 512.974 439.408, 512.665 436.972, 512 438 C 511.226 439.198, 511.028 439.018, 511.015 437.105 C 511.007 435.788, 509.372 431.288, 507.383 427.105 C 503.857 419.690, 501.740 417.470, 422.659 338.250 L 341.552 257 422.584 175.750 C 498.973 99.155, 503.827 94.079, 507.308 87.147 C 509.338 83.103, 511 78.716, 511 77.397 C 511 76.079, 511.450 75, 512 75 C 512.596 75, 512.994 71.260, 512.985 65.750 C 512.974 59.408, 512.665 56.972, 512 58 C 511.238 59.179, 511.027 58.940, 511.015 56.884 C 511.007 55.446, 509.347 50.964, 507.326 46.924 C 504.417 41.110, 501.032 36.890, 491.076 26.670 C 477.919 13.164, 469.560 6.517, 462 3.547 C 456 1.190, 442.722 0.398, 435.886 1.989 C 423.188 4.945, 424.415 3.836, 337.729 90.642 L 256.500 171.982 175 90.648 C 94.599 10.411, 93.393 9.263, 85.534 5.484 C 78.192 1.953, 76.782 1.627, 67.534 1.331 C 61.020 1.122, 56.097 1.477, 53.500 2.342 M 0.360 67 C 0.360 72.225, 0.529 74.362, 0.735 71.750 C 0.941 69.138, 0.941 64.862, 0.735 62.250 C 0.529 59.638, 0.360 61.775, 0.360 67 M 0.360 447 C 0.360 452.225, 0.529 454.363, 0.735 451.750 C 0.941 449.137, 0.941 444.863, 0.735 442.250 C 0.529 439.637, 0.360 441.775, 0.360 447" stroke="none" fill="#5cd4cc" fill-rule="evenodd"/></svg>